<?xml version="1.0" encoding="UTF-8"?>
<svg width="9px" height="80px" viewBox="0 0 9 80" version="1.1" xmlns="http://www.w3.org/2000/svg" xmlns:xlink="http://www.w3.org/1999/xlink">
    <!-- Generator: Sketch 42 (36781) - http://www.bohemiancoding.com/sketch -->
    <title>icon_sidebar_handle</title>
    <desc>Created with Sketch.</desc>
    <defs></defs>
    <g id="Symbols" stroke="none" stroke-width="1" fill="none" fill-rule="evenodd">
        <g id="icon_sidebar_handle" fill-rule="nonzero" fill="#FFFFFF">
            <path d="M7,1 L7,79 C7,79.5522847 7.44771525,80 8,80 C8.55228475,80 9,79.5522847 9,79 L9,1 C9,0.44771525 8.55228475,0 8,0 C7.44771525,0 7,0.44771525 7,1 Z" id="Line"></path>
            <path d="M0,1 L0,79 C0,79.5522847 0.44771525,80 1,80 C1.55228475,80 2,79.5522847 2,79 L2,1 C2,0.44771525 1.55228475,0 1,0 C0.44771525,0 0,0.44771525 0,1 Z" id="Line"></path>
        </g>
    </g>
</svg>